<svg width="33" height="33" viewBox="0 0 33 33" fill="none" xmlns="http://www.w3.org/2000/svg">
<path d="M22.5779 14.875H22.5917M16.4097 14.875H16.4236M10.2415 14.875H10.2554M11.0208 27.2083H10.25C4.08333 27.2083 1 25.6667 1 17.9583V10.25C1 4.08333 4.08333 1 10.25 1H22.5833C28.75 1 31.8333 4.08333 31.8333 10.25V17.9583C31.8333 24.125 28.75 27.2083 22.5833 27.2083H21.8125C21.3346 27.2083 20.8721 27.4396 20.5792 27.825L18.2667 30.9083C17.2492 32.265 15.5842 32.265 14.5667 30.9083L12.2542 27.825C12.0075 27.4858 11.4371 27.2083 11.0208 27.2083Z" stroke="#FFD369" stroke-width="2" stroke-linecap="round" stroke-linejoin="round"/>
</svg>
